# xmcd
#
# Track frame offsets:
#	150
#	11177
#	31492
#	50527
#	62632
#	78477
#	92292
#	106342
#	119427
#	141847
#
# Disc length: 2126 seconds
#
# Revision: 1
# Processed by: cddbd v1.5.2PL0 Copyright (c) Steve Scherf et al.
# Submitted via: audiograbber 1.83.01
#
DISCID=80084c0a
DTITLE=The Blind Boys Of Alabama - Atom Bomb
DYEAR=2005
DGENRE=Gospel
TTITLE0=(Jesus Hits Like The) Atom Bomb
TTITLE1=Demons
TTITLE2=Talk About Suffering
TTITLE3=I Know I've Been Converted
TTITLE4=Old Blind Barnabas
TTITLE5=Spirit In The Sky
TTITLE6=Faith And Grace
TTITLE7=New Born Soul
TTITLE8=Presence Of The Lord
TTITLE9=Moses
EXTD=
EXTT0=
EXTT1=
EXTT2=
EXTT3=
EXTT4=
EXTT5=
EXTT6=
EXTT7=
EXTT8=
EXTT9=
PLAYORDER=
